<?xml version="1.0" standalone="no"?>
<!DOCTYPE svg PUBLIC "-//W3C//DTD SVG 20010904//EN"
 "http://www.w3.org/TR/2001/REC-SVG-20010904/DTD/svg10.dtd">
<svg version="1.0" xmlns="http://www.w3.org/2000/svg"
 width="840.000000pt" height="409.000000pt" viewBox="0 0 840.000000 409.000000"
 preserveAspectRatio="xMidYMid meet">

<g transform="translate(0.000000,409.000000) scale(0.100000,-0.100000)"
fill="#000000" stroke="none">
<path d="M3462 3644 c-29 -14 -64 -40 -77 -58 -58 -76 -55 -27 -55 -1007 0
-655 3 -912 12 -940 15 -51 69 -114 122 -142 l41 -22 830 -3 830 -3 183 -308
c100 -170 192 -317 203 -327 15 -14 36 -19 76 -19 49 0 58 3 84 33 l29 32 0
294 0 294 143 4 c159 4 197 17 254 81 67 76 64 25 61 1038 l-3 916 -30 49
c-19 30 -49 60 -79 79 l-49 30 -1262 3 -1261 2 -52 -26z m2135 -558 c98 -60
94 -201 -7 -253 l-44 -23 -781 0 c-744 0 -782 1 -822 19 -50 23 -74 57 -80
115 -9 76 35 138 112 157 16 4 381 7 810 6 748 -2 781 -3 812 -21z m1 -776
c50 -31 74 -76 69 -133 -5 -57 -30 -95 -78 -119 -31 -17 -92 -18 -824 -18
-732 0 -793 1 -825 18 -102 51 -106 192 -8 252 32 19 52 20 833 20 781 0 801
-1 833 -20z"/>
<path d="M2332 3244 c-57 -28 -97 -73 -118 -131 -11 -31 -13 -213 -13 -943
l-1 -905 24 -50 c50 -109 129 -145 318 -145 l118 0 0 -295 0 -295 29 -32 c26
-30 35 -33 84 -33 40 0 61 5 76 19 11 10 103 157 203 327 l183 308 830 3 830
3 41 22 c53 29 106 89 102 116 l-3 22 -790 5 c-865 5 -811 2 -919 65 -98 57
-189 178 -216 288 l-12 47 -127 0 c-139 0 -177 11 -214 62 -29 40 -33 115 -8
156 39 61 70 72 214 72 l127 0 0 240 0 240 -118 0 c-102 0 -123 3 -162 23 -76
39 -101 122 -59 197 36 63 66 74 212 78 l127 4 0 279 0 279 -353 0 -353 0 -52
-26z"/>
</g>
</svg>
