<svg width="35" height="38" xmlns="http://www.w3.org/2000/svg" preserveAspectRatio="xMidYMid meet">
 <!-- Created with Method Draw - http://github.com/duopixel/Method-Draw/ -->

 <g id="Layer_1">
  <title>Layer 1</title>
  <g stroke="null" id="svg_7">
   <g stroke="null" id="svg_4" fill="#000000" transform="matrix(0.00747854 0 0 -0.00854971 1.07844 36.388)">
    <path stroke="null" id="svg_5" d="m1385.22695,3528.26947c-29,-14 -64,-40 -77,-58c-58,-76 -55,-27 -55,-1007c0,-655 3,-912 12,-940c15,-51 69,-114 122,-142l41,-22l830,-3l830,-3l183,-308c100,-170 192,-317 203,-327c15,-14 36,-19 76,-19c49,0 58,3 84,33l29,32l0,294l0,294l143,4c159,4 197,17 254,81c67,76 64,25 61,1038l-3,916l-30,49c-19,30 -49,60 -79,79l-49,30l-1262,3l-1261,2l-52,-26zm2135,-558c98,-60 94,-201 -7,-253l-44,-23l-781,0c-744,0 -782,1 -822,19c-50,23 -74,57 -80,115c-9,76 35,138 112,157c16,4 381,7 810,6c748,-2 781,-3 812,-21zm1,-776c50,-31 74,-76 69,-133c-5,-57 -30,-95 -78,-119c-31,-17 -92,-18 -824,-18c-732,0 -793,1 -825,18c-102,51 -106,192 -8,252c32,19 52,20 833,20c781,0 801,-1 833,-20z"/>
    <path stroke="null" id="svg_6" d="m255.22695,3128.26947c-57,-28 -97,-73 -118,-131c-11,-31 -13,-213 -13,-943l-1,-905l24,-50c50,-109 129,-145 318,-145l118,0l0,-295l0,-295l29,-32c26,-30 35,-33 84,-33c40,0 61,5 76,19c11,10 103,157 203,327l183,308l830,3l830,3l41,22c53,29 106,89 102,116l-3,22l-790,5c-865,5 -811,2 -919,65c-98,57 -189,178 -216,288l-12,47l-127,0c-139,0 -177,11 -214,62c-29,40 -33,115 -8,156c39,61 70,72 214,72l127,0l0,240l0,240l-118,0c-102,0 -123,3 -162,23c-76,39 -101,122 -59,197c36,63 66,74 212,78l127,4l0,279l0,279l-353,0l-353,0l-52,-26z"/>
   </g>
  </g>
 </g>
</svg>